<svg width="636" height="637" xmlns="http://www.w3.org/2000/svg" xmlns:xlink="http://www.w3.org/1999/xlink" overflow="hidden"><defs><clipPath id="clip0"><path d="M240 7 876 7 876 644 240 644Z" fill-rule="evenodd" clip-rule="evenodd"/></clipPath><clipPath id="clip1"><path d="M240 8 876 8 876 643 240 643Z" fill-rule="evenodd" clip-rule="evenodd"/></clipPath><clipPath id="clip2"><path d="M301 69 815 69 815 582 301 582Z" fill-rule="evenodd" clip-rule="evenodd"/></clipPath><clipPath id="clip3"><path d="M301 69 815 69 815 582 301 582Z" fill-rule="evenodd" clip-rule="evenodd"/></clipPath></defs><g clip-path="url(#clip0)" transform="translate(-240 -7)"><g clip-path="url(#clip1)"><g clip-path="url(#clip2)"><g clip-path="url(#clip3)"><path d="M482.767 159.613C493.615 135.052 504.178 99.21 504.178 71.793 504.178-0.886481 424.584-26.5205 294.628 33.2386 187.059 26.0618 83.5301 106.865 57.6683 219.587 88.5022 184.745 135.893 137.337 179.574 118.488 125.331 166.752 79.0817 227.869 43.9663 291.554 23.2324 329.458 0 390.711 0 436.492 0 535.009 92.7997 522.941 180.146 478.473 211.55 493.894 246.666 494.037 281.781 494.037 378.848 494.037 465.922 439.775 498.468 348.1L377.706 348.1C325.228 436.642 181.002 401.065 181.002 300.692L509.602 300.692C516.005 257.137 507.948 205.033 482.767 159.613ZM64.5212 346.674C82.2219 397.794 118.193 442.489 164.729 469.906 76.0395 518.817-8.43706 498.985 64.5212 346.674ZM180.43 237.865C182.429 182.746 230.677 143.049 284.35 143.049 337.736 143.049 386.271 182.746 388.27 237.865L180.43 237.865ZM364.859 50.3745C386.271 40.0935 413.393 28.3844 437.374 28.3844 468.778 28.3844 491.616 50.0887 491.616 82.075 491.616 102.066 484.194 131.053 477.056 149.902 450.791 107.635 411.108 68.366 364.859 50.3745Z" fill="#FFFFFF" transform="matrix(1.00157 0 -0 1 301.747 69.6497)"/></g></g></g></g></svg>