<svg width="636" height="637" xmlns="http://www.w3.org/2000/svg" xmlns:xlink="http://www.w3.org/1999/xlink" overflow="hidden"><defs><clipPath id="clip0"><path d="M240 7 876 7 876 644 240 644Z" fill-rule="evenodd" clip-rule="evenodd"/></clipPath><clipPath id="clip1"><path d="M240 8 876 8 876 643 240 643Z" fill-rule="evenodd" clip-rule="evenodd"/></clipPath><clipPath id="clip2"><path d="M301 69 815 69 815 582 301 582Z" fill-rule="evenodd" clip-rule="evenodd"/></clipPath><clipPath id="clip3"><path d="M301 69 815 69 815 582 301 582Z" fill-rule="evenodd" clip-rule="evenodd"/></clipPath></defs><g clip-path="url(#clip0)" transform="translate(-240 -7)"><g clip-path="url(#clip1)"><g clip-path="url(#clip2)"><g clip-path="url(#clip3)"><path d="M274.529 274.529 237.171 237.171 165.903 345.798ZM255.85 7.99532C118.93 7.99532 7.99532 118.93 7.99532 255.85 7.99532 392.77 118.93 503.705 255.85 503.705 392.77 503.705 503.705 392.77 503.705 255.85 503.705 118.93 392.77 7.99532 255.85 7.99532ZM411.609 182.683 426.381 176.557C430.461 174.87 435.137 176.812 436.823 180.892 436.823 180.893 436.824 180.893 436.824 180.894L436.824 180.894C438.517 184.973 436.585 189.651 432.506 191.344 432.503 191.345 432.5 191.347 432.497 191.348L417.756 197.454C413.677 199.142 409.002 197.206 407.312 193.127L407.312 193.127C405.62 189.056 407.543 184.384 411.609 182.683ZM314.246 93.945 320.363 79.1737C322.064 75.1071 326.736 73.1847 330.806 74.8762L330.806 74.8762C334.885 76.5658 336.822 81.2411 335.134 85.3201L329.008 100.091C327.318 104.17 322.642 106.107 318.564 104.419L318.564 104.419C314.484 102.73 312.545 98.0534 314.234 93.9734 314.238 93.964 314.242 93.9545 314.246 93.945ZM255.85 59.9649 255.85 59.9649C260.266 59.9649 263.846 63.5445 263.846 67.9602L263.846 83.9509C263.846 88.3666 260.266 91.9462 255.85 91.9462L255.85 91.9462C251.435 91.9462 247.855 88.3666 247.855 83.9509L247.855 67.9602C247.855 63.5445 251.435 59.9649 255.85 59.9649ZM180.894 74.8762C184.973 73.1829 189.651 75.1163 191.344 79.1944 191.345 79.1975 191.347 79.2006 191.348 79.2037L197.454 93.945C199.223 97.9911 197.377 102.705 193.331 104.473 189.284 106.242 184.571 104.395 182.802 100.349 182.761 100.254 182.721 100.158 182.683 100.061L176.557 85.2901C174.89 81.2167 176.829 76.5619 180.894 74.8762ZM117.351 117.341 117.351 117.341C120.474 114.221 125.533 114.221 128.655 117.341L139.918 128.645C143.018 131.763 143.018 136.8 139.918 139.918L139.918 139.918C136.796 143.038 131.737 143.038 128.615 139.918L117.311 128.615C114.219 125.488 114.233 120.452 117.341 117.341ZM59.9649 255.85 59.9649 255.85C59.9649 251.435 63.5445 247.855 67.9602 247.855L83.9509 247.855C88.3666 247.855 91.9462 251.435 91.9462 255.85L91.9462 255.85C91.9462 260.266 88.3666 263.846 83.9509 263.846L67.9602 263.846C63.5445 263.846 59.9649 260.266 59.9649 255.85ZM100.091 329.017 85.3201 335.144C81.2392 336.831 76.5637 334.889 74.8771 330.808 74.8768 330.807 74.8765 330.807 74.8762 330.806L74.8762 330.806C73.1829 326.728 75.1163 322.05 79.1944 320.357 79.1975 320.356 79.2006 320.354 79.2037 320.353L93.945 314.246C98.024 312.558 102.699 314.495 104.389 318.574L104.389 318.574C106.081 322.644 104.158 327.316 100.091 329.017ZM104.419 193.097 104.419 193.097C102.749 197.185 98.0812 199.144 93.9935 197.474 93.9773 197.467 93.9612 197.461 93.945 197.454L79.1737 191.338C75.1071 189.637 73.1847 184.965 74.8762 180.894L74.8762 180.894C76.5658 176.816 81.2411 174.879 85.3201 176.567L100.091 182.693C104.164 184.383 106.1 189.05 104.419 193.127ZM197.454 417.756 191.338 432.527C189.649 436.609 184.971 438.548 180.889 436.859 176.808 435.17 174.868 430.492 176.557 426.411L182.683 411.639C184.292 407.528 188.93 405.499 193.043 407.108 197.155 408.718 199.183 413.356 197.573 417.468 197.535 417.565 197.496 417.661 197.454 417.756ZM263.846 443.74C263.846 448.156 260.266 451.736 255.85 451.736L255.85 451.736C251.435 451.736 247.855 448.156 247.855 443.74L247.855 427.75C247.855 423.334 251.435 419.754 255.85 419.754L255.85 419.754C260.266 419.754 263.846 423.334 263.846 427.75ZM330.806 436.824 330.806 436.824C326.728 438.517 322.05 436.585 320.357 432.506 320.356 432.503 320.354 432.5 320.353 432.497L314.246 417.756C312.558 413.677 314.495 409.002 318.574 407.312L318.574 407.312C322.652 405.624 327.328 407.561 329.017 411.639L335.144 426.411C336.811 430.484 334.872 435.138 330.806 436.824ZM394.349 394.359 394.349 394.359C391.227 397.479 386.168 397.479 383.046 394.359L371.782 383.056C368.682 379.938 368.682 374.901 371.782 371.782L371.782 371.782C374.905 368.662 379.964 368.662 383.086 371.782L394.389 383.086C397.481 386.213 397.467 391.249 394.359 394.359ZM286.083 286.083 110.275 401.425 225.618 225.618 401.425 110.275ZM436.824 330.806 436.824 330.806C435.134 334.885 430.459 336.822 426.381 335.134L411.609 329.008C407.531 327.318 405.594 322.642 407.282 318.564L407.282 318.564C408.971 314.484 413.647 312.545 417.728 314.234 417.737 314.238 417.747 314.242 417.756 314.246L432.527 320.363C436.594 322.064 438.516 326.736 436.824 330.806ZM443.74 263.846 427.75 263.846C423.334 263.846 419.754 260.266 419.754 255.85L419.754 255.85C419.754 251.435 423.334 247.855 427.75 247.855L443.74 247.855C448.156 247.855 451.736 251.435 451.736 255.85L451.736 255.85C451.736 260.266 448.156 263.846 443.74 263.846Z" fill="#FFFFFF" transform="matrix(1.00157 0 -0 1 301.747 69.6497)"/></g></g></g></g></svg>