<svg width="636" height="657" xmlns="http://www.w3.org/2000/svg" xmlns:xlink="http://www.w3.org/1999/xlink" overflow="hidden"><defs><clipPath id="clip0"><path d="M240-3 876-3 876 654 240 654Z" fill-rule="evenodd" clip-rule="evenodd"/></clipPath><clipPath id="clip1"><path d="M240-2 876-2 876 653 240 653Z" fill-rule="evenodd" clip-rule="evenodd"/></clipPath><clipPath id="clip2"><path d="M309 69 807 69 807 582 309 582Z" fill-rule="evenodd" clip-rule="evenodd"/></clipPath><clipPath id="clip3"><path d="M309 69 807 69 807 582 309 582Z" fill-rule="evenodd" clip-rule="evenodd"/></clipPath></defs><g clip-path="url(#clip0)" transform="translate(-240 3)"><g clip-path="url(#clip1)"><g clip-path="url(#clip2)"><g clip-path="url(#clip3)"><path d="M131.325 217.211 55.0267 99.9669C102.563 40.8456 173.869 8.28897 246.771 7.98936 289.015 7.68976 332.158 18.4754 371.406 41.1452 414.748 66.3117 447.704 102.464 468.676 144.008L263.649 133.223C205.626 129.827 150.4 162.484 131.325 217.211ZM164.181 255.66C164.181 301.798 201.532 339.148 247.67 339.148 293.809 339.148 331.159 301.798 331.159 255.66 331.159 209.521 293.809 172.171 247.67 172.171 201.532 172.171 164.181 209.421 164.181 255.66ZM478.663 166.578 339.148 173.769C376.998 218.01 377.597 281.825 345.74 330.76L233.789 502.93C280.227 505.427 328.063 495.241 371.406 470.074 478.663 408.157 522.105 278.329 478.663 166.578ZM133.522 303.196 40.3463 119.94C14.8802 158.888 0 205.626 0 255.66 0 379.495 90.6793 482.058 209.221 500.234L272.837 375.6C215.313 386.386 159.787 354.828 133.522 303.196Z" fill="#FFFFFF" transform="matrix(1.00231 0 -0 1 309.756 69.8404)"/></g></g></g></g></svg>