<svg width="636" height="637" xmlns="http://www.w3.org/2000/svg" xmlns:xlink="http://www.w3.org/1999/xlink" overflow="hidden"><defs><clipPath id="clip0"><path d="M240 7 876 7 876 644 240 644Z" fill-rule="evenodd" clip-rule="evenodd"/></clipPath><clipPath id="clip1"><path d="M240 8 876 8 876 643 240 643Z" fill-rule="evenodd" clip-rule="evenodd"/></clipPath><clipPath id="clip2"><path d="M301 69 815 69 815 582 301 582Z" fill-rule="evenodd" clip-rule="evenodd"/></clipPath><clipPath id="clip3"><path d="M301 69 815 69 815 582 301 582Z" fill-rule="evenodd" clip-rule="evenodd"/></clipPath></defs><g clip-path="url(#clip0)" transform="translate(-240 -7)"><g clip-path="url(#clip1)"><g clip-path="url(#clip2)"><g clip-path="url(#clip3)"><path d="M481.638 134.401C440.612 54.1483 352.054 7.99532 255.76 7.99532 136.97 7.99532 37.4881 91.6264 13.4621 203.541 39.4469 157.078 99.6317 124.447 162.835 124.447 242.058 124.447 283.854 173.349 285.013 174.598 307 198.384 317.994 224.958 317.994 257.649 317.994 268.043 312.687 283.454 302.893 296.197 301.324 298.196 296.507 301.034 296.507 307.19 296.507 312.247 299.795 317.104 305.641 321.182 333.485 340.541 385.964 337.982 386.104 337.982 406.724 337.925 426.951 332.342 444.68 321.812 481.088 300.55 503.506 261.593 503.595 219.432 504.095 176.027 488.104 147.174 481.638 134.401ZM212.646 475.392C194.11 463.856 178.225 448.529 166.033 430.418 133.112 383.026 131.813 334.874 145.945 294.498 155.994 262.791 175.951 235.144 202.881 215.624 261.847 170.45 297.666 209.977 301.883 214.624 300.494 211.135 298.861 207.749 296.996 204.49 287.762 188.57 273.01 168.102 240.469 151.012 206.769 133.332 169.921 132.433 162.875 132.433 124.187 132.433 85.0203 145.425 55.4076 168.102 35.6591 183.193 12.7625 208.598 8.59497 242.858 7.5156 255.161 5.84658 305.621 31.5815 361.059 76.0594 455.954 175.415 512.619 279.736 502.586 241.639 495.97 213.925 475.962 212.646 475.392ZM463.219 377.119C460.821 375.6 457.785 375.512 455.304 376.889 448.697 380.343 441.885 383.388 434.906 386.004 412.677 394.319 389.129 398.558 365.396 398.517 273.78 398.517 193.977 335.494 193.977 254.601 194.087 245.309 196.315 236.167 200.493 227.867 184.545 241.932 171.402 258.887 161.755 277.837 146.844 307.19 128.775 365.916 175.078 429.409 181.584 438.314 198.064 459.391 231.045 477.051 254.601 489.694 280.016 496.649 302.703 496.649 337.822 496.649 418.065 463.229 465.608 387.843 467.913 384.24 466.861 379.45 463.258 377.144 463.245 377.136 463.232 377.127 463.219 377.119Z" fill="#FFFFFF" transform="matrix(1.00157 0 -0 1 301.747 69.6497)"/></g></g></g></g></svg>