<svg width="636" height="637" xmlns="http://www.w3.org/2000/svg" xmlns:xlink="http://www.w3.org/1999/xlink" overflow="hidden"><defs><clipPath id="clip0"><path d="M240 7 876 7 876 644 240 644Z" fill-rule="evenodd" clip-rule="evenodd"/></clipPath><clipPath id="clip1"><path d="M240 8 876 8 876 643 240 643Z" fill-rule="evenodd" clip-rule="evenodd"/></clipPath><clipPath id="clip2"><path d="M301 69 815 69 815 582 301 582Z" fill-rule="evenodd" clip-rule="evenodd"/></clipPath><clipPath id="clip3"><path d="M301 69 815 69 815 582 301 582Z" fill-rule="evenodd" clip-rule="evenodd"/></clipPath></defs><g clip-path="url(#clip0)" transform="translate(-240 -7)"><g clip-path="url(#clip1)"><g clip-path="url(#clip2)"><g clip-path="url(#clip3)"><path d="M130.554 123.418C130.714 123.428 130.634 123.428 130.554 123.418ZM481.768 168.741C471.164 143.256 449.707 115.772 432.857 107.047 446.569 133.922 454.514 160.896 457.542 181.004 457.542 181.004 457.542 181.144 457.592 181.414 430.028 112.704 383.286 85.0003 345.108 24.6756 343.179 21.6273 341.25 18.5691 339.371 15.351 338.372 13.702 337.513 12.013 336.683 10.304 335.106 7.24918 333.885 4.02321 333.045 0.689597 333.064 0.359516 332.823 0.0714528 332.495 0.0299829 332.345-0.00984058 332.186-0.00984058 332.036 0.0299829L331.916 0.0999415 331.736 0.199883 331.836 0.0599649C277.638 31.8114 255.161 87.3889 249.384 122.768 232.639 123.72 216.237 127.904 201.082 135.091 198.228 136.507 196.897 139.845 197.994 142.836 199.1 146.031 202.584 147.726 205.78 146.624L206.299 146.414C219.523 140.169 233.795 136.44 248.385 135.421L249.804 135.321C251.803 135.201 253.802 135.121 255.8 135.101 267.648 135.005 279.448 136.627 290.83 139.918 291.499 140.118 292.149 140.338 292.829 140.548 294.718 141.117 296.586 141.747 298.445 142.417 299.805 142.916 301.154 143.416 302.493 143.996 303.582 144.436 304.672 144.875 305.741 145.345 307.42 146.098 309.086 146.881 310.738 147.694 311.488 148.063 312.237 148.433 312.987 148.823 314.586 149.662 316.165 150.539 317.724 151.451 318.73 152.031 319.73 152.631 320.722 153.25 338.382 164.176 353.036 179.335 363.357 197.355 350.365 188.21 327.029 179.175 304.572 183.083 392.26 226.917 368.714 377.869 247.215 372.172 236.395 371.73 225.703 369.668 215.494 366.056 213.075 365.146 210.697 364.167 208.338 363.128 206.959 362.498 205.58 361.858 204.221 361.129 174.398 345.798 149.812 316.735 146.744 281.425 146.744 281.425 157.988 239.5 227.317 239.5 234.813 239.5 256.23 218.592 256.63 212.516 256.54 210.517 214.115 193.657 197.574 177.356 188.73 168.651 184.532 164.454 180.814 161.306 178.804 159.598 176.699 158.007 174.508 156.538 168.948 137.093 168.71 116.512 173.818 96.9433 148.773 108.347 129.294 126.376 115.143 142.287L115.023 142.287C105.358 130.044 106.028 89.6675 106.598 81.2425 106.478 80.7128 99.3819 84.9203 98.4524 85.5499 89.9262 91.6431 81.9534 98.4755 74.6263 105.968 66.2959 114.425 58.684 123.562 51.8697 133.282L51.8697 133.282C36.1923 155.497 25.0744 180.6 19.1588 207.139 19.0988 207.409 16.8302 217.343 15.1611 229.606 14.8813 231.518 14.6214 233.43 14.3816 235.342 13.8119 239.03 13.3822 243.048 12.9424 249.334 12.9424 249.574 12.9424 249.814 12.8925 250.054 12.7126 252.762 12.5527 255.461 12.4027 258.169 12.4027 258.579 12.4027 258.988 12.4027 259.408 12.4027 394.029 121.549 503.156 256.18 503.156 376.75 503.156 476.871 415.627 496.47 300.654 496.879 297.536 497.209 294.398 497.579 291.25 502.426 249.444 497.039 205.51 481.768 168.771Z" fill="#FFFFFF" transform="matrix(1.00157 0 -0 1 301.747 69.6497)"/></g></g></g></g></svg>