<svg width="636" height="657" xmlns="http://www.w3.org/2000/svg" xmlns:xlink="http://www.w3.org/1999/xlink" overflow="hidden"><defs><clipPath id="clip0"><path d="M240-3 876-3 876 654 240 654Z" fill-rule="evenodd" clip-rule="evenodd"/></clipPath><clipPath id="clip1"><path d="M240-2 876-2 876 653 240 653Z" fill-rule="evenodd" clip-rule="evenodd"/></clipPath><clipPath id="clip2"><path d="M309 69 807 69 807 582 309 582Z" fill-rule="evenodd" clip-rule="evenodd"/></clipPath><clipPath id="clip3"><path d="M309 69 807 69 807 582 309 582Z" fill-rule="evenodd" clip-rule="evenodd"/></clipPath></defs><g clip-path="url(#clip0)" transform="translate(-240 3)"><g clip-path="url(#clip1)"><g clip-path="url(#clip2)"><g clip-path="url(#clip3)"><path d="M313.483 32.6565C143.509 32.6565 61.2185 256.159 166.179 387.284 202.63 432.624 254.661 462.784 313.483 462.784 349.734 462.784 383.689 451.699 412.75 432.424 369.009 471.572 310.986 495.341 247.67 495.341 243.775 495.341 239.681 495.341 235.786 495.041 104.461 488.949 0 380.593 0 247.67 0 110.852 110.852 0 247.67 0L248.469 0C311.485 0.299601 369.009 24.068 412.651 63.0161 383.689 43.6419 349.635 32.6565 313.483 32.6565ZM415.147 429.828C374.302 454.495 324.568 453.396 283.323 424.035 339.448 403.563 380.893 332.557 380.893 247.67 380.893 163.083 339.748 92.0774 283.622 71.3051 325.367 42.1439 374.701 41.0454 416.346 66.3117 522.105 164.88 521.705 331.658 415.147 429.828Z" fill="#FFFFFF" transform="matrix(1.00231 0 -0 1 309.756 69.8404)"/></g></g></g></g></svg>